<svg width="16" height="16" viewBox="0 0 16 16" fill="none" xmlns="http://www.w3.org/2000/svg">
<path d="M8.63353 15V13.2H9.66686C10.5005 13.2 11.2983 12.882 11.8854 12.3185C12.4721 11.7552 12.8002 10.993 12.8002 10.2C12.8002 9.40705 12.4721 8.64484 11.8854 8.08154C11.2983 7.51797 10.5005 7.2 9.66686 7.2H6.33353C5.84103 7.2 5.36714 7.01225 5.01651 6.67565C4.66559 6.33877 4.46686 5.88008 4.46686 5.4C4.46686 4.91992 4.66559 4.46123 5.01651 4.12435C5.36714 3.78774 5.84103 3.6 6.33353 3.6H10.5002C10.7717 3.6 11.0336 3.70346 11.228 3.89004C11.4226 4.07689 11.5335 4.3321 11.5335 4.6C11.5335 4.75641 11.5982 4.90818 11.7161 5.02141C11.8343 5.13487 11.9963 5.2 12.1669 5.2C12.3374 5.2 12.4994 5.13487 12.6176 5.02141C12.7356 4.90818 12.8002 4.75641 12.8002 4.6C12.8002 4.01923 12.5599 3.46049 12.1295 3.04722C11.6987 2.63369 11.1128 2.4 10.5002 2.4H8.63353V0.6C8.63353 0.443591 8.56889 0.29182 8.45094 0.178592C8.33275 0.0651278 8.17076 0 8.0002 0C7.82963 0 7.66764 0.0651278 7.54945 0.178592C7.4315 0.29182 7.36686 0.443591 7.36686 0.6V2.4H6.33353C5.49994 2.4 4.70206 2.71797 4.11501 3.28154C3.52824 3.84484 3.2002 4.60705 3.2002 5.4C3.2002 6.19295 3.52824 6.95516 4.11501 7.51846C4.70206 8.08203 5.49994 8.4 6.33353 8.4H9.66686C10.1594 8.4 10.6332 8.58774 10.9839 8.92435C11.3348 9.26123 11.5335 9.71992 11.5335 10.2C11.5335 10.6801 11.3348 11.1388 10.9839 11.4756C10.6332 11.8123 10.1594 12 9.66686 12H5.5002C5.2287 12 4.96678 11.8965 4.77243 11.71C4.57779 11.5231 4.46686 11.2679 4.46686 11C4.46686 10.8436 4.40222 10.6918 4.28428 10.5786C4.16609 10.4651 4.00409 10.4 3.83353 10.4C3.66297 10.4 3.50097 10.4651 3.38278 10.5786C3.26483 10.6918 3.2002 10.8436 3.2002 11C3.2002 11.5808 3.44044 12.1395 3.87093 12.5528C4.3017 12.9663 4.88762 13.2 5.5002 13.2H7.36686V15C7.36686 15.1564 7.4315 15.3082 7.54945 15.4214C7.66764 15.5349 7.82963 15.6 8.0002 15.6C8.17076 15.6 8.33275 15.5349 8.45094 15.4214C8.56889 15.3082 8.63353 15.1564 8.63353 15Z" fill="#F3ECFE"/>
</svg>
